<svg width="512" height="512" viewBox="0 0 64 64" xmlns="http://www.w3.org/2000/svg" shape-rendering="crispEdges">
    <g id="human_64_baby_suck2">
        <!-- Head and ears -->
        <path fill="#ffcd94" d="M22 18h20v24h-20z M20 22h2v16h-2z M42 22h2v16h-2z"/>
        <!-- Hair tuft -->
        <path fill="#5e3f13" d="M30 16h4v2h-4z"/>
        <!-- Eyes - slightly squinted from sucking -->
        <path fill="#000000" d="M26 27h4v3h-4z M34 27h4v3h-4z"/>
        <!-- Cheeks - right puffed out (sucking out) -->
        <path fill="#ffadad" d="M22 30h4v4h-4z M38 30h6v4h-6z"/>
        <!-- Pacifier base -->
        <path fill="#00a8ff" d="M28 34h8v6h-8z"/>
        <!-- Pacifier button - popped out -->
        <path fill="#0078d7" d="M29 34h6v4h-6z"/>
        <!-- Pacifier ring -->
        <path fill="#ffffff" d="M28 38h8v2h-8z"/>
        <!-- Diaper -->
        <path fill="#ffffff" d="M24 42h16v12h-16z"/>
        <!-- Arms -->
        <path fill="#ffcd94" d="M18 42h4v8h-4z M42 42h4v8h-4z"/>
        <!-- Legs - kicking slightly -->
        <path fill="#ffcd94" d="M26 54h4v8h-4z M36 54h4v8h-4z"/>
        <!-- Little hands -->
        <path fill="#ffcd94" d="M18 26h2v6h-2z M44 26h2v6h-2z"/>
    </g>
</svg>
