<svg width="512" height="512" viewBox="0 0 32 32" xmlns="http://www.w3.org/2000/svg" shape-rendering="crispEdges">
    <g id="human_32_teen_walk1">
        <!-- Left leg forward, right leg back (darker = back) -->
        <path fill="#1a2236" d="M10 22h3v10h-3z"/>
        <path fill="#26324f" d="M19 22h3v10h-3z"/>
        <!-- Body/hoodie -->
        <path fill="#555555" d="M11 11h10v10h-10z"/>
        <path fill="#666666" d="M13 17h6v4h-6z"/>
        <!-- Arms with hoodie -->
        <path fill="#555555" d="M10 11h1v7h-1z M9 13h1v4h-1z"/>
        <path fill="#444444" d="M21 11h1v7h-1z M22 13h1v4h-1z"/>
        <!-- Head -->
        <path fill="#ffcd94" d="M13 6h6v6h-6z"/>
        <!-- Hair -->
        <path fill="#5e3f13" d="M13 5h6v2h-6z M13 4h1v1h-1z M18 4h1v1h-1z M14 4h4v1h-4z"/>
        <!-- Eyes -->
        <path fill="#000000" d="M14 8h1v1h-1z M17 8h1v1h-1z"/>
    </g>
</svg>
